<svg width="36" height="36" viewBox="0 0 36 36" xmlns="http://www.w3.org/2000/svg">
<path fill-rule="evenodd" clip-rule="evenodd" d="M19.3825 19.562C18.9344 18.5917 18.5734 17.3767 18.3328 16H15.0703C16.0253 17.651 17.5534 18.929 19.3825 19.562ZM21.0285 18.3283C20.7671 17.6747 20.5403 16.8885 20.3667 16H23.6333C23.4597 16.8885 23.2329 17.6747 22.9715 18.3283C22.6653 19.0937 22.3508 19.5788 22.1039 19.8399C22.0635 19.8826 22.0289 19.9155 22 19.9407C21.9711 19.9155 21.9365 19.8826 21.8961 19.8399C21.6492 19.5788 21.3347 19.0937 21.0285 18.3283ZM20 12C20 12.6936 20.0306 13.3627 20.0872 14H23.9128C23.9694 13.3627 24 12.6936 24 12C24 11.6605 23.9927 11.3269 23.9786 11H20.0214C20.0073 11.3269 20 11.6605 20 12ZM24.6175 19.562C25.0656 18.5917 25.4266 17.3767 25.6672 16H28.9297C27.9747 17.651 26.4466 18.929 24.6175 19.562ZM25.92 14H29.748C29.9125 13.3608 30 12.6906 30 12C30 11.6613 29.979 11.3276 29.9381 11H25.9802C25.9933 11.3289 26 11.6625 26 12C26 12.6849 25.9725 13.3538 25.92 14ZM24.6175 4.43801C26.8011 5.19373 28.5557 6.86865 29.4185 9H25.8169C25.592 7.21014 25.1713 5.63713 24.6175 4.43801ZM22.9715 5.67171C23.3272 6.56108 23.6189 7.69598 23.7996 9H20.2004C20.3811 7.69598 20.6728 6.56108 21.0285 5.67171C21.3347 4.90634 21.6492 4.42118 21.8961 4.16007C21.9365 4.11741 21.9711 4.08451 22 4.05929C22.0289 4.08451 22.0635 4.11741 22.1039 4.16007C22.3508 4.42118 22.6653 4.90634 22.9715 5.67171ZM19.3825 4.43801C18.8287 5.63713 18.408 7.21014 18.1831 9H14.5815C15.4443 6.86865 17.1989 5.19373 19.3825 4.43801ZM14 12C14 11.6613 14.021 11.3276 14.0619 11H18.0198C18.0067 11.3289 18 11.6625 18 12C18 12.6849 18.0275 13.3538 18.08 14H14.252C14.0875 13.3608 14 12.6906 14 12ZM22 2C27.5228 2 32 6.47715 32 12C32 17.5228 27.5228 22 22 22C16.4772 22 12 17.5228 12 12C12 6.47715 16.4772 2 22 2ZM7 24H5L5 30H7V24ZM7 32C7.56328 32 8.07217 31.7671 8.43566 31.3924H10.0481L18.4255 33.6755C18.8115 33.8043 19.4057 33.9448 20.0454 33.9872C20.6816 34.0293 21.5082 33.9849 22.2166 33.5941C22.7349 33.3082 24.0438 32.4206 25.4052 31.4772C26.7931 30.5154 28.3067 29.4452 29.2772 28.7531L29.2949 28.7404L32.2147 26.4599L32.2569 26.418C32.534 26.1429 32.8368 25.7471 32.9484 25.2114C33.2648 23.6929 32.0851 22.046 30.332 22.046C29.6348 22.046 29.1353 22.2807 28.8273 22.4254L28.8055 22.4356L28.7659 22.4542L24.0116 24.9376C23.5353 24.5362 22.9191 24.2942 22.2469 24.2942H18.6099L18.0245 23.7852C16.8265 22.6777 15.2188 22 13.4549 22C12.3341 22 11.2748 22.2739 10.3438 22.7588H8.56834C8.20201 22.2965 7.63563 22 7 22H5C3.89543 22 3 22.8954 3 24V30C3 31.1046 3.89543 32 5 32H7ZM10.3158 29.3924H9V24.7588H10.8659L11.0972 24.6259C11.7895 24.2282 12.5937 24 13.4549 24C14.702 24 15.8331 24.4791 16.6758 25.262L16.6878 25.2733L17.862 26.2942H22.2469C22.5269 26.2942 22.7687 26.4478 22.8927 26.6737C22.948 26.7745 22.9796 26.8897 22.9796 27.0149C22.9796 27.4063 22.6582 27.7355 22.2469 27.7355H17.6316C17.0793 27.7355 16.6316 28.1832 16.6316 28.7355C16.6316 29.2878 17.0793 29.7355 17.6316 29.7355H22.2469C23.7495 29.7355 24.9796 28.524 24.9796 27.0149C24.9796 26.9078 24.9734 26.802 24.9612 26.698L29.6539 24.2468L29.655 24.2463C29.9454 24.11 30.0996 24.046 30.332 24.046C30.5438 24.046 30.7227 24.1422 30.8485 24.3011C30.9825 24.4702 31.0196 24.6634 30.9905 24.8035C30.9887 24.812 30.9754 24.8629 30.8832 24.9621L28.0981 27.1374C27.1321 27.8263 25.6361 28.8839 24.266 29.8334C22.8608 30.8071 21.6563 31.619 21.2505 31.8429C21.0347 31.9619 20.6633 32.0237 20.1776 31.9915C19.7133 31.9608 19.277 31.8532 19.0412 31.7724L19.011 31.7621L10.3158 29.3924Z"/>
</svg>
