<svg width="38" height="38" viewBox="0 0 38 38" xmlns="http://www.w3.org/2000/svg">
<path fill-rule="evenodd" clip-rule="evenodd" d="M20.4305 20.7572C19.9264 19.6657 19.5203 18.2987 19.2496 16.75H15.5792C16.6536 18.6073 18.3727 20.0451 20.4305 20.7572ZM22.2822 19.3693C21.9881 18.634 21.733 17.7495 21.5376 16.75H25.2126C25.0173 17.7495 24.7622 18.634 24.4681 19.3693C24.1236 20.2304 23.7698 20.7762 23.492 21.0699C23.4466 21.1179 23.4077 21.1549 23.3751 21.1833C23.3426 21.1549 23.3037 21.1179 23.2583 21.0699C22.9805 20.7762 22.6267 20.2304 22.2822 19.3693ZM21.1251 12.25C21.1251 13.0302 21.1596 13.7831 21.2232 14.5H25.5271C25.5907 13.7831 25.6251 13.0302 25.6251 12.25C25.6251 11.8681 25.6169 11.4928 25.601 11.125H21.1493C21.1334 11.4928 21.1251 11.8681 21.1251 12.25ZM26.3198 20.7572C26.8239 19.6657 27.23 18.2987 27.5007 16.75H31.1711C30.0967 18.6073 28.3776 20.0451 26.3198 20.7572ZM27.7851 14.5H32.0916C32.2767 13.7808 32.3751 13.0269 32.3751 12.25C32.3751 11.869 32.3515 11.4935 32.3055 11.125H27.8529C27.8676 11.495 27.8751 11.8703 27.8751 12.25C27.8751 13.0205 27.8442 13.773 27.7851 14.5ZM26.3198 3.74275C28.7764 4.59295 30.7503 6.47723 31.7209 8.875H27.6691C27.4162 6.8614 26.9428 5.09177 26.3198 3.74275ZM24.4681 5.13068C24.8683 6.13121 25.1964 7.40798 25.3997 8.875H21.3506C21.5539 7.40798 21.882 6.13121 22.2822 5.13068C22.6267 4.26963 22.9805 3.72382 23.2583 3.43007C23.3037 3.38208 23.3426 3.34507 23.3751 3.3167C23.4077 3.34507 23.4466 3.38208 23.492 3.43007C23.7698 3.72382 24.1236 4.26963 24.4681 5.13068ZM20.4305 3.74275C19.8075 5.09177 19.3341 6.8614 19.0812 8.875H15.0294C15.9999 6.47723 17.9739 4.59295 20.4305 3.74275ZM14.3751 12.25C14.3751 11.869 14.3988 11.4935 14.4448 11.125H18.8974C18.8827 11.495 18.8751 11.8703 18.8751 12.25C18.8751 13.0205 18.9061 13.773 18.9652 14.5H14.6587C14.4736 13.7808 14.3751 13.0269 14.3751 12.25ZM23.3751 1C29.5883 1 34.6251 6.03679 34.6251 12.25C34.6251 18.4632 29.5883 23.5 23.3751 23.5C17.1619 23.5 12.1251 18.4632 12.1251 12.25C12.1251 6.03679 17.1619 1 23.3751 1ZM6.5 25.7499H4.25V32.4999H6.5V25.7499ZM6.5 34.7499C7.13369 34.7499 7.70619 34.488 8.11512 34.0664H9.92915L19.3537 36.6348C19.7879 36.7797 20.4564 36.9378 21.176 36.9855C21.8918 37.0329 22.8217 36.9829 23.6186 36.5433C24.2017 36.2216 25.6743 35.2231 27.2058 34.1618C28.7672 33.0797 30.47 31.8758 31.5618 31.0971L31.5818 31.0829L34.8666 28.5173L34.914 28.4702C35.2257 28.1607 35.5664 27.7154 35.692 27.1128C36.0479 25.4045 34.7208 23.5517 32.7485 23.5517C31.9642 23.5517 31.4022 23.8157 31.0557 23.9785L31.0312 23.99L30.9866 24.0109L25.638 26.8047C25.1022 26.3532 24.409 26.0809 23.6528 26.0809H19.5611L18.9026 25.5083C17.5548 24.2624 15.7461 23.4999 13.7618 23.4999C12.5008 23.4999 11.3092 23.808 10.2617 24.3536H8.26438C7.85225 23.8335 7.21508 23.4999 6.5 23.4999H4.25C3.00736 23.4999 2 24.5073 2 25.7499V32.4999C2 33.7426 3.00736 34.7499 4.25 34.7499H6.5ZM10.2302 31.8164H8.75V26.6036H10.8491L11.1093 26.4541C11.8882 26.0067 12.7929 25.7499 13.7618 25.7499C15.1647 25.7499 16.4372 26.2889 17.3852 27.1697L17.3988 27.1824L18.7197 28.3309H23.6528C23.9678 28.3309 24.2397 28.5037 24.3792 28.7578C24.4415 28.8712 24.4771 29.0008 24.4771 29.1416C24.4771 29.582 24.1155 29.9524 23.6528 29.9524H18.4605C17.8392 29.9524 17.3355 30.456 17.3355 31.0774C17.3355 31.6987 17.8392 32.2024 18.4605 32.2024H23.6528C25.3432 32.2024 26.7271 30.8394 26.7271 29.1416C26.7271 29.0212 26.72 28.9022 26.7063 28.7852L31.9857 26.0275L31.9869 26.027C32.3136 25.8737 32.4871 25.8017 32.7485 25.8017C32.9867 25.8017 33.188 25.9099 33.3296 26.0887C33.4802 26.2789 33.5221 26.4963 33.4893 26.6538C33.4873 26.6635 33.4723 26.7206 33.3686 26.8323L30.2354 29.2795C29.1485 30.0545 27.4656 31.2443 25.9242 32.3125C24.3434 33.4079 22.9883 34.3213 22.5317 34.5732C22.289 34.7071 21.8712 34.7766 21.3248 34.7404C20.8025 34.7058 20.3116 34.5847 20.0464 34.4939L20.0124 34.4823L10.2302 31.8164Z"/>
</svg>
